<svg width="16" height="16" viewBox="0 0 16 16" fill="none" xmlns="http://www.w3.org/2000/svg">
<g clip-path="url(#clip0_281_2612)">
<path d="M13.3333 9.33333C13.7015 9.33333 14 9.6318 14 10C14 10.3419 13.7427 10.6237 13.4111 10.6622L13.3333 10.6667H4.27614L5.80474 12.1953C6.06509 12.4556 6.06509 12.8777 5.80474 13.1381C5.56441 13.3784 5.18626 13.3969 4.92473 13.1935L4.86193 13.1381L2.30907 10.5852C1.86557 10.1417 2.14937 9.396 2.75081 9.33705L2.82761 9.33333H13.3333ZM10.1953 2.86192C10.4356 2.6216 10.8137 2.60312 11.0753 2.80647L11.1381 2.86192L13.6909 5.41478C14.1345 5.85828 13.8506 6.604 13.2492 6.66294L13.1724 6.66666H2.66667C2.29848 6.66666 2 6.36818 2 6C2 5.65811 2.25736 5.37633 2.58892 5.33782L2.66667 5.33333H11.7239L10.1953 3.80474C9.93493 3.54438 9.93493 3.12228 10.1953 2.86192Z" fill="#2C84FF"/>
</g>
<defs>
<clipPath id="clip0_281_2612">
<rect width="16" height="16" fill="white"/>
</clipPath>
</defs>
</svg>
